<?xml version="1.0" encoding="UTF-8" standalone="no"?>
<!-- Created with Inkscape (http://www.inkscape.org/) -->

<svg
   width="88.106224mm"
   height="16.66283mm"
   viewBox="0 0 88.106224 16.66283"
   version="1.1"
   id="svg1543"
   sodipodi:docname="brunoLogoV2.svg"
   inkscape:version="1.1 (c68e22c387, 2021-05-23)"
   xmlns:inkscape="http://www.inkscape.org/namespaces/inkscape"
   xmlns:sodipodi="http://sodipodi.sourceforge.net/DTD/sodipodi-0.dtd"
   xmlns="http://www.w3.org/2000/svg"
   xmlns:svg="http://www.w3.org/2000/svg">
  <sodipodi:namedview
     id="namedview1545"
     pagecolor="#ffffff"
     bordercolor="#666666"
     borderopacity="1.0"
     inkscape:pageshadow="2"
     inkscape:pageopacity="0.0"
     inkscape:pagecheckerboard="0"
     inkscape:document-units="mm"
     showgrid="false"
     fit-margin-top="0"
     fit-margin-left="0"
     fit-margin-right="0"
     fit-margin-bottom="0"
     inkscape:zoom="2.1997092"
     inkscape:cx="55.916482"
     inkscape:cy="-3.6368444"
     inkscape:window-width="2560"
     inkscape:window-height="1334"
     inkscape:window-x="-11"
     inkscape:window-y="-11"
     inkscape:window-maximized="1"
     inkscape:current-layer="layer1" />
  <defs
     id="defs1540" />
  <g
     inkscape:label="Layer 1"
     inkscape:groupmode="layer"
     id="layer1"
     transform="translate(-89.3077,-157.349)">
    <path
       d="m 111.77785,169.01565 h -1.17 v 0.6541 h 1.03796 v 0.3378 h -1.03796 v 0.82299 h -0.39922 v -2.14961 h 1.56922 z m 1.8149,0.17504 h 0.38386 v 1.63985 h -0.36544 v -0.20882 c -0.0614,0.0737 -0.13819,0.13051 -0.23031,0.17043 -0.0921,0.0399 -0.19142,0.0599 -0.29788,0.0599 v 0 c -0.21906,0 -0.39154,-0.0609 -0.51745,-0.18272 -0.1259,-0.12181 -0.18885,-0.30248 -0.18885,-0.54201 v 0 -0.93661 h 0.38386 v 0.88441 c 0,0.1474 0.0333,0.25744 0.0998,0.33012 0.0665,0.0727 0.16122,0.10902 0.28406,0.10902 v 0 c 0.13716,0 0.24618,-0.0425 0.32704,-0.12745 0.0809,-0.085 0.1213,-0.20728 0.1213,-0.36696 v 0 z m 1.19457,1.63985 v -2.27859 h 0.38386 v 2.27859 z m 1.19458,0 v -2.27859 h 0.38386 v 2.27859 z m 3.05246,0.0307 c -0.16583,0 -0.32603,-0.0236 -0.4806,-0.0706 -0.15456,-0.0471 -0.27689,-0.10952 -0.36697,-0.18732 v 0 l 0.13819,-0.31016 c 0.088,0.0696 0.19602,0.12642 0.32398,0.17043 0.12795,0.044 0.25642,0.066 0.3854,0.066 v 0 c 0.15968,0 0.27893,-0.0256 0.35775,-0.0768 0.0788,-0.0512 0.11823,-0.11874 0.11823,-0.20268 v 0 c 0,-0.0614 -0.022,-0.11208 -0.066,-0.152 -0.044,-0.0399 -0.0998,-0.0711 -0.16736,-0.0937 -0.0676,-0.0225 -0.15969,-0.0481 -0.27638,-0.0768 v 0 c -0.16378,-0.0389 -0.29634,-0.0778 -0.39768,-0.1167 -0.10134,-0.0389 -0.18835,-0.0998 -0.26102,-0.18271 -0.0727,-0.0829 -0.10902,-0.195 -0.10902,-0.33626 v 0 c 0,-0.11874 0.0322,-0.22674 0.0967,-0.32398 0.0645,-0.0973 0.16173,-0.17453 0.29173,-0.23185 0.13,-0.0573 0.28918,-0.086 0.47752,-0.086 v 0 c 0.13103,0 0.26001,0.0164 0.38694,0.0491 0.12693,0.0327 0.23645,0.0798 0.32858,0.14126 v 0 l -0.1259,0.31015 c -0.0942,-0.0553 -0.19245,-0.0972 -0.29481,-0.1259 -0.10236,-0.0287 -0.20166,-0.043 -0.29788,-0.043 v 0 c -0.15763,0 -0.27484,0.0266 -0.35161,0.0798 -0.0768,0.0532 -0.11516,0.12386 -0.11516,0.21189 v 0 c 0,0.0614 0.022,0.11157 0.066,0.15047 0.044,0.0389 0.0998,0.0696 0.16736,0.0921 0.0676,0.0225 0.15969,0.0481 0.27638,0.0768 v 0 c 0.15969,0.0368 0.29071,0.0752 0.39308,0.11516 0.10236,0.0399 0.18988,0.10083 0.26256,0.18272 0.0727,0.0819 0.10901,0.19244 0.10901,0.33165 v 0 c 0,0.11874 -0.0322,0.22622 -0.0967,0.32244 -0.0645,0.0962 -0.16224,0.17299 -0.29327,0.23032 -0.13102,0.0573 -0.29071,0.086 -0.47905,0.086 z m 2.41371,-0.39307 0.10748,0.27331 c -0.045,0.0368 -0.0998,0.0645 -0.16429,0.0829 -0.0645,0.0184 -0.13256,0.0276 -0.20421,0.0276 v 0 c -0.18016,0 -0.31938,-0.0471 -0.41764,-0.14127 -0.0983,-0.0942 -0.14741,-0.23133 -0.14741,-0.41149 v 0 -0.78922 h -0.27024 v -0.30708 h 0.27024 v -0.37465 h 0.38386 v 0.37465 H 121.445 V 169.51 h -0.43914 v 0.78001 c 0,0.0798 0.0195,0.14074 0.0584,0.18271 0.0389,0.042 0.0952,0.063 0.1689,0.063 v 0 c 0.086,0 0.15764,-0.0225 0.21497,-0.0676 z m 1.35733,-1.29591 c 0.24158,0 0.42634,0.0578 0.5543,0.17351 0.12795,0.11566 0.19193,0.29019 0.19193,0.52358 v 0 0.96118 h -0.36237 v -0.19961 c -0.0471,0.0717 -0.11413,0.12642 -0.20114,0.1643 -0.087,0.0379 -0.19193,0.0568 -0.31477,0.0568 v 0 c -0.12283,0 -0.23031,-0.021 -0.32244,-0.063 -0.0921,-0.042 -0.16327,-0.10032 -0.21342,-0.17505 -0.0502,-0.0747 -0.0752,-0.15917 -0.0752,-0.25334 v 0 c 0,-0.1474 0.0548,-0.26563 0.16429,-0.35469 0.10953,-0.0891 0.28201,-0.13358 0.51744,-0.13358 v 0 h 0.42378 v -0.0246 c 0,-0.11465 -0.0343,-0.20268 -0.10287,-0.26409 -0.0686,-0.0614 -0.17043,-0.0921 -0.30555,-0.0921 v 0 c -0.0921,0 -0.18272,0.0143 -0.27178,0.043 -0.0891,0.0287 -0.16429,0.0686 -0.22571,0.11976 v 0 l -0.15047,-0.27945 c 0.086,-0.0655 0.18937,-0.11567 0.31016,-0.15047 0.12079,-0.0348 0.24874,-0.0522 0.38386,-0.0522 z m -0.0522,1.40032 c 0.0962,0 0.1817,-0.022 0.25642,-0.066 0.0747,-0.044 0.12744,-0.10697 0.15815,-0.18886 v 0 -0.1904 h -0.39614 c -0.22111,0 -0.33166,0.0727 -0.33166,0.21804 v 0 c 0,0.0696 0.0276,0.12488 0.0829,0.16583 0.0553,0.0409 0.13205,0.0614 0.23032,0.0614 z m 2.36458,0.27945 c -0.16992,0 -0.32244,-0.0358 -0.45756,-0.10748 -0.13512,-0.0717 -0.24055,-0.17146 -0.3163,-0.29941 -0.0757,-0.12796 -0.11362,-0.2728 -0.11362,-0.43453 v 0 c 0,-0.16173 0.0379,-0.30607 0.11362,-0.43299 0.0757,-0.12693 0.18067,-0.22623 0.31477,-0.29788 0.13409,-0.0717 0.28712,-0.10748 0.45909,-0.10748 v 0 c 0.16174,0 0.30351,0.0328 0.42532,0.0983 0.12181,0.0655 0.21343,0.15968 0.27484,0.28252 v 0 l -0.2948,0.17197 c -0.0471,-0.0757 -0.10595,-0.13256 -0.17658,-0.17044 -0.0706,-0.0379 -0.14791,-0.0568 -0.23185,-0.0568 v 0 c -0.1433,0 -0.26204,0.0466 -0.35622,0.13973 -0.0942,0.0932 -0.14126,0.21752 -0.14126,0.37311 v 0 c 0,0.15559 0.0466,0.27996 0.13973,0.37311 0.0931,0.0931 0.2124,0.13972 0.35775,0.13972 v 0 c 0.0839,0 0.16123,-0.0189 0.23185,-0.0568 0.0706,-0.0379 0.12949,-0.0947 0.17658,-0.17043 v 0 l 0.2948,0.17197 c -0.0635,0.12283 -0.1561,0.21752 -0.27791,0.28405 -0.12181,0.0665 -0.26256,0.0998 -0.42225,0.0998 z m 2.56112,-0.0215 -0.56811,-0.70323 -0.28559,0.27024 v 0.43299 h -0.38386 v -2.27859 h 0.38386 v 1.37575 l 0.79535,-0.73701 h 0.46064 l -0.68481,0.68788 0.7493,0.95197 z m 2.65017,0 v -1.81181 h -0.71244 v -0.3378 h 1.82411 v 0.3378 h -0.71245 v 1.81181 z m 2.74845,-1.63985 h 0.3685 l -0.76772,1.7719 c -0.0717,0.17811 -0.15866,0.3035 -0.26102,0.37618 -0.10237,0.0727 -0.22623,0.10902 -0.37158,0.10902 v 0 c -0.0819,0 -0.16276,-0.0133 -0.2426,-0.0399 -0.0798,-0.0266 -0.14536,-0.0635 -0.19654,-0.11055 v 0 l 0.15355,-0.28253 c 0.0369,0.0348 0.0804,0.0624 0.13051,0.0829 0.0502,0.0205 0.10083,0.0307 0.15201,0.0307 v 0 c 0.0676,0 0.12335,-0.0174 0.16736,-0.0522 0.044,-0.0348 0.0845,-0.0932 0.1213,-0.17504 v 0 l 0.0276,-0.0645 -0.71552,-1.64598 h 0.39922 l 0.51591,1.21299 z m 1.8241,-0.0184 c 0.15969,0 0.30248,0.0348 0.42839,0.10441 0.12591,0.0696 0.22469,0.16788 0.29634,0.29481 0.0717,0.12693 0.10748,0.2733 0.10748,0.43913 v 0 c 0,0.16583 -0.0358,0.31272 -0.10748,0.44067 -0.0717,0.12796 -0.17043,0.22674 -0.29634,0.29634 -0.12591,0.0696 -0.2687,0.10441 -0.42839,0.10441 v 0 c -0.2211,0 -0.39614,-0.0737 -0.52512,-0.2211 v 0 0.79535 h -0.38386 v -2.23559 h 0.36544 v 0.21496 c 0.0635,-0.0778 0.14177,-0.13614 0.23492,-0.17504 0.0932,-0.0389 0.19602,-0.0584 0.30862,-0.0584 z m -0.043,1.35119 c 0.14126,0 0.25744,-0.0471 0.34855,-0.14126 0.0911,-0.0942 0.13665,-0.21803 0.13665,-0.37158 v 0 c 0,-0.15354 -0.0455,-0.2774 -0.13665,-0.37157 -0.0911,-0.0942 -0.20729,-0.14126 -0.34855,-0.14126 v 0 c -0.0921,0 -0.17504,0.021 -0.24874,0.063 -0.0737,0.042 -0.13205,0.10185 -0.17504,0.17965 -0.043,0.0778 -0.0645,0.16787 -0.0645,0.27023 v 0 c 0,0.10236 0.0215,0.19244 0.0645,0.27024 0.043,0.0778 0.10134,0.13767 0.17504,0.17964 0.0737,0.042 0.15662,0.063 0.24874,0.063 z m 3.08931,-0.50362 c 0,0.0266 -0.002,0.0645 -0.006,0.11362 v 0 h -1.2867 c 0.0225,0.12079 0.0814,0.21649 0.17658,0.28712 0.0952,0.0706 0.21342,0.10595 0.35468,0.10595 v 0 c 0.18016,0 0.32859,-0.0594 0.44528,-0.17811 v 0 l 0.20575,0.23646 c -0.0737,0.088 -0.16685,0.15456 -0.27945,0.1996 -0.1126,0.045 -0.23953,0.0676 -0.38079,0.0676 v 0 c -0.18016,0 -0.33882,-0.0358 -0.47599,-0.10748 -0.13716,-0.0717 -0.24311,-0.17146 -0.31783,-0.29941 -0.0747,-0.12795 -0.11208,-0.27279 -0.11208,-0.43453 v 0 c 0,-0.15968 0.0363,-0.3035 0.10901,-0.43145 0.0727,-0.12796 0.17351,-0.22776 0.30248,-0.29941 0.12898,-0.0717 0.27434,-0.10748 0.43607,-0.10748 v 0 c 0.15969,0 0.30248,0.0353 0.42839,0.10594 0.1259,0.0706 0.22417,0.16992 0.2948,0.29788 0.0706,0.12795 0.10595,0.27586 0.10595,0.44374 z m -0.82914,-0.54048 c -0.12283,0 -0.22673,0.0363 -0.31169,0.10902 -0.085,0.0727 -0.13666,0.16941 -0.15508,0.29019 v 0 h 0.93048 c -0.0164,-0.11874 -0.0665,-0.21496 -0.15048,-0.28866 -0.0839,-0.0737 -0.18834,-0.11055 -0.31323,-0.11055 z m 2.01143,1.37268 c -0.13307,0 -0.26307,-0.0174 -0.39,-0.0522 -0.12693,-0.0348 -0.22827,-0.0788 -0.30402,-0.13205 v 0 l 0.1474,-0.29173 c 0.0737,0.0491 0.16225,0.0885 0.26564,0.11823 0.10338,0.0297 0.20523,0.0445 0.30555,0.0445 v 0 c 0.22929,0 0.34394,-0.0604 0.34394,-0.18118 v 0 c 0,-0.0573 -0.0292,-0.0972 -0.0875,-0.11977 -0.0584,-0.0225 -0.15201,-0.044 -0.28099,-0.0645 v 0 c -0.13512,-0.0205 -0.24516,-0.044 -0.33012,-0.0706 -0.085,-0.0266 -0.15866,-0.0732 -0.2211,-0.13972 -0.0624,-0.0665 -0.0937,-0.15917 -0.0937,-0.27791 v 0 c 0,-0.15559 0.065,-0.27996 0.195,-0.37311 0.13,-0.0932 0.30555,-0.13973 0.52666,-0.13973 v 0 c 0.1126,0 0.2252,0.0128 0.33779,0.0384 0.1126,0.0256 0.20473,0.0599 0.27638,0.10288 v 0 l -0.1474,0.29173 c -0.13921,-0.0819 -0.29583,-0.12284 -0.46984,-0.12284 v 0 c -0.1126,0 -0.19808,0.0169 -0.25642,0.0507 -0.0583,0.0338 -0.0875,0.0783 -0.0875,0.13359 v 0 c 0,0.0614 0.0312,0.10492 0.0937,0.13051 0.0624,0.0256 0.15917,0.0497 0.29019,0.0722 v 0 c 0.13103,0.0205 0.23851,0.044 0.32245,0.0706 0.0839,0.0266 0.1561,0.0717 0.21649,0.13512 0.0604,0.0635 0.0906,0.15354 0.0906,0.27023 v 0 c 0,0.15355 -0.0665,0.27638 -0.1996,0.36851 -0.13308,0.0921 -0.31426,0.13819 -0.54355,0.13819 z m 2.13427,0 c -0.16992,0 -0.32245,-0.0358 -0.45756,-0.10748 -0.13512,-0.0717 -0.24056,-0.17146 -0.3163,-0.29941 -0.0757,-0.12795 -0.11363,-0.2728 -0.11363,-0.43453 v 0 c 0,-0.16173 0.0379,-0.30606 0.11363,-0.43299 0.0757,-0.12693 0.18067,-0.22622 0.31476,-0.29787 0.1341,-0.0717 0.28713,-0.10749 0.4591,-0.10749 v 0 c 0.16173,0 0.3035,0.0327 0.42532,0.0983 0.12181,0.0655 0.21342,0.15969 0.27484,0.28252 v 0 l -0.29481,0.17197 c -0.0471,-0.0757 -0.10594,-0.13256 -0.17657,-0.17043 -0.0706,-0.0379 -0.14792,-0.0568 -0.23185,-0.0568 v 0 c -0.14331,0 -0.26205,0.0466 -0.35622,0.13972 -0.0942,0.0932 -0.14127,0.21752 -0.14127,0.37311 v 0 c 0,0.15559 0.0466,0.27996 0.13973,0.37311 0.0932,0.0931 0.2124,0.13973 0.35776,0.13973 v 0 c 0.0839,0 0.16122,-0.0189 0.23185,-0.0568 0.0706,-0.0379 0.12949,-0.0947 0.17657,-0.17044 v 0 l 0.29481,0.17197 c -0.0635,0.12284 -0.1561,0.21752 -0.27791,0.28406 -0.12182,0.0665 -0.26257,0.0998 -0.42225,0.0998 z m 1.70434,-1.42181 c 0.11055,-0.17197 0.30504,-0.25796 0.58347,-0.25796 v 0 0.36544 c -0.0328,-0.006 -0.0624,-0.009 -0.0891,-0.009 v 0 c -0.14945,0 -0.26615,0.0435 -0.35008,0.13051 -0.0839,0.087 -0.12591,0.2124 -0.12591,0.37618 v 0 0.79536 h -0.38386 v -1.63985 h 0.36544 z m 1.21607,1.40031 v -1.63984 h 0.38386 v 1.63984 z m 0.19347,-1.91008 c -0.0696,0 -0.12796,-0.022 -0.17505,-0.066 -0.0471,-0.044 -0.0706,-0.0988 -0.0706,-0.16429 v 0 c 0,-0.0655 0.0236,-0.12028 0.0706,-0.16429 0.0471,-0.044 0.10544,-0.066 0.17505,-0.066 v 0 c 0.0696,0 0.12795,0.021 0.17504,0.063 0.0471,0.042 0.0706,0.0947 0.0706,0.15815 v 0 c 0,0.0676 -0.023,0.12437 -0.0691,0.17044 -0.0461,0.0461 -0.10493,0.0691 -0.17658,0.0691 z m 1.91009,0.25181 c 0.15968,0 0.30248,0.0348 0.42838,0.10441 0.12591,0.0696 0.22469,0.16788 0.29634,0.29481 0.0717,0.12693 0.10749,0.2733 0.10749,0.43913 v 0 c 0,0.16583 -0.0358,0.31272 -0.10749,0.44067 -0.0717,0.12796 -0.17043,0.22674 -0.29634,0.29634 -0.1259,0.0696 -0.2687,0.10441 -0.42838,0.10441 v 0 c -0.22111,0 -0.39615,-0.0737 -0.52513,-0.2211 v 0 0.79535 h -0.38386 v -2.23559 h 0.36544 v 0.21496 c 0.0635,-0.0778 0.14177,-0.13614 0.23492,-0.17504 0.0932,-0.0389 0.19603,-0.0584 0.30863,-0.0584 z m -0.043,1.35119 c 0.14126,0 0.25744,-0.0471 0.34854,-0.14126 0.0911,-0.0942 0.13666,-0.21803 0.13666,-0.37158 v 0 c 0,-0.15354 -0.0455,-0.2774 -0.13666,-0.37157 -0.0911,-0.0942 -0.20728,-0.14126 -0.34854,-0.14126 v 0 c -0.0921,0 -0.17504,0.021 -0.24874,0.063 -0.0737,0.042 -0.13205,0.10185 -0.17504,0.17965 -0.043,0.0778 -0.0645,0.16787 -0.0645,0.27023 v 0 c 0,0.10236 0.0215,0.19244 0.0645,0.27024 0.043,0.0778 0.10133,0.13767 0.17504,0.17964 0.0737,0.042 0.15661,0.063 0.24874,0.063 z m 2.426,-0.0553 0.10748,0.2733 c -0.045,0.0369 -0.0998,0.0645 -0.16429,0.0829 -0.0645,0.0184 -0.13257,0.0276 -0.20422,0.0276 v 0 c -0.18016,0 -0.31937,-0.0471 -0.41764,-0.14126 -0.0983,-0.0942 -0.1474,-0.23134 -0.1474,-0.41149 v 0 -0.78922 h -0.27024 v -0.30709 h 0.27024 v -0.37464 h 0.38386 v 0.37464 h 0.43913 V 169.51 h -0.43913 v 0.78 c 0,0.0798 0.0194,0.14075 0.0583,0.18272 0.0389,0.042 0.0952,0.063 0.16889,0.063 v 0 c 0.086,0 0.15764,-0.0225 0.21497,-0.0676 z m 1.92237,0.36236 v -2.14961 h 0.93969 c 0.22929,0 0.433,0.0445 0.61111,0.13358 0.17811,0.0891 0.3163,0.21496 0.41457,0.37772 0.0983,0.16275 0.1474,0.35059 0.1474,0.5635 v 0 c 0,0.21292 -0.0491,0.40075 -0.1474,0.56351 -0.0983,0.16275 -0.23646,0.28866 -0.41457,0.37771 -0.17811,0.0891 -0.38182,0.13359 -0.61111,0.13359 v 0 z m 0.39922,-0.3378 h 0.52205 c 0.15763,0 0.29634,-0.0302 0.4161,-0.0906 0.11976,-0.0604 0.21189,-0.14638 0.27638,-0.25795 0.0645,-0.11158 0.0967,-0.24107 0.0967,-0.38847 v 0 c 0,-0.1474 -0.0322,-0.27689 -0.0967,-0.38846 -0.0645,-0.11158 -0.15662,-0.19756 -0.27638,-0.25795 -0.11976,-0.0604 -0.25847,-0.0906 -0.4161,-0.0906 v 0 h -0.52205 z m 3.94915,-0.47291 c 0,0.0266 -0.002,0.0645 -0.006,0.11362 v 0 h -1.2867 c 0.0225,0.12079 0.0814,0.2165 0.17658,0.28713 0.0952,0.0706 0.21343,0.10594 0.35469,0.10594 v 0 c 0.18015,0 0.32858,-0.0594 0.44527,-0.17811 v 0 l 0.20575,0.23646 c -0.0737,0.088 -0.16685,0.15457 -0.27945,0.19961 -0.1126,0.045 -0.23953,0.0676 -0.38079,0.0676 v 0 c -0.18016,0 -0.33882,-0.0358 -0.47598,-0.10749 -0.13717,-0.0717 -0.24311,-0.17145 -0.31784,-0.29941 -0.0747,-0.12795 -0.11209,-0.27279 -0.11209,-0.43452 v 0 c 0,-0.15969 0.0363,-0.30351 0.10902,-0.43146 0.0727,-0.12796 0.1735,-0.22776 0.30248,-0.29941 0.12898,-0.0717 0.27433,-0.10748 0.43607,-0.10748 v 0 c 0.15968,0 0.30248,0.0353 0.42838,0.10594 0.12591,0.0706 0.22418,0.16993 0.29481,0.29788 0.0706,0.12795 0.10595,0.27586 0.10595,0.44374 z m -0.82913,-0.54047 c -0.12284,0 -0.22674,0.0363 -0.3117,0.10901 -0.085,0.0727 -0.13665,0.16941 -0.15508,0.2902 v 0 h 0.93048 c -0.0164,-0.11874 -0.0665,-0.21496 -0.15047,-0.28866 -0.0839,-0.0737 -0.18835,-0.11055 -0.31323,-0.11055 z m 2.64096,-0.28867 h 0.3685 l -0.70323,1.63985 h -0.39615 l -0.70323,-1.63985 h 0.39922 l 0.50976,1.21607 z m 2.41064,0.82914 c 0,0.0266 -0.002,0.0645 -0.006,0.11362 v 0 h -1.2867 c 0.0225,0.12079 0.0814,0.2165 0.17658,0.28713 0.0952,0.0706 0.21342,0.10594 0.35468,0.10594 v 0 c 0.18016,0 0.32859,-0.0594 0.44528,-0.17811 v 0 l 0.20575,0.23646 c -0.0737,0.088 -0.16685,0.15457 -0.27945,0.19961 -0.1126,0.045 -0.23953,0.0676 -0.38079,0.0676 v 0 c -0.18016,0 -0.33882,-0.0358 -0.47598,-0.10749 -0.13717,-0.0717 -0.24312,-0.17145 -0.31784,-0.29941 -0.0747,-0.12795 -0.11209,-0.27279 -0.11209,-0.43452 v 0 c 0,-0.15969 0.0363,-0.30351 0.10902,-0.43146 0.0727,-0.12796 0.1735,-0.22776 0.30248,-0.29941 0.12898,-0.0717 0.27433,-0.10748 0.43606,-0.10748 v 0 c 0.15969,0 0.30249,0.0353 0.42839,0.10594 0.12591,0.0706 0.22418,0.16993 0.29481,0.29788 0.0706,0.12795 0.10595,0.27586 0.10595,0.44374 z m -0.82914,-0.54047 c -0.12283,0 -0.22673,0.0363 -0.31169,0.10901 -0.085,0.0727 -0.13666,0.16941 -0.15508,0.2902 v 0 h 0.93047 c -0.0164,-0.11874 -0.0665,-0.21496 -0.15047,-0.28866 -0.0839,-0.0737 -0.18835,-0.11055 -0.31323,-0.11055 z m 1.50473,1.35118 v -2.27859 h 0.38387 v 2.27859 z m 1.93159,0.0215 c -0.16583,0 -0.31528,-0.0358 -0.44835,-0.10748 -0.13307,-0.0717 -0.23697,-0.17146 -0.31169,-0.29941 -0.0747,-0.12796 -0.11209,-0.2728 -0.11209,-0.43453 v 0 c 0,-0.16173 0.0374,-0.30607 0.11209,-0.43299 0.0747,-0.12693 0.17862,-0.22623 0.31169,-0.29788 0.13307,-0.0717 0.28252,-0.10748 0.44835,-0.10748 v 0 c 0.16788,0 0.31835,0.0358 0.45142,0.10748 0.13307,0.0716 0.23697,0.17095 0.3117,0.29788 0.0747,0.12692 0.11208,0.27126 0.11208,0.43299 v 0 c 0,0.16173 -0.0374,0.30657 -0.11208,0.43453 -0.0747,0.12795 -0.17863,0.22775 -0.3117,0.29941 -0.13307,0.0716 -0.28354,0.10748 -0.45142,0.10748 z m 0,-0.32859 c 0.14126,0 0.25796,-0.0471 0.35008,-0.14126 0.0921,-0.0942 0.13819,-0.21803 0.13819,-0.37157 v 0 c 0,-0.15354 -0.0461,-0.2774 -0.13819,-0.37158 -0.0921,-0.0942 -0.20882,-0.14126 -0.35008,-0.14126 v 0 c -0.14126,0 -0.25744,0.0471 -0.34854,0.14126 -0.0911,0.0942 -0.13666,0.21804 -0.13666,0.37158 v 0 c 0,0.15354 0.0455,0.2774 0.13666,0.37157 0.0911,0.0942 0.20728,0.14126 0.34854,0.14126 z m 2.45978,-1.35118 c 0.15969,0 0.30248,0.0348 0.42839,0.10441 0.1259,0.0696 0.22469,0.16787 0.29634,0.2948 0.0717,0.12693 0.10748,0.27331 0.10748,0.43914 v 0 c 0,0.16583 -0.0358,0.31271 -0.10748,0.44067 -0.0717,0.12795 -0.17044,0.22673 -0.29634,0.29634 -0.12591,0.0696 -0.2687,0.10441 -0.42839,0.10441 v 0 c -0.2211,0 -0.39614,-0.0737 -0.52512,-0.22111 v 0 0.79536 h -0.38386 v -2.23559 h 0.36543 v 0.21496 c 0.0635,-0.0778 0.14178,-0.13614 0.23493,-0.17504 0.0931,-0.0389 0.19602,-0.0583 0.30862,-0.0583 z m -0.043,1.35118 c 0.14126,0 0.25744,-0.0471 0.34855,-0.14126 0.0911,-0.0942 0.13665,-0.21803 0.13665,-0.37157 v 0 c 0,-0.15354 -0.0455,-0.2774 -0.13665,-0.37158 -0.0911,-0.0942 -0.20729,-0.14126 -0.34855,-0.14126 v 0 c -0.0921,0 -0.17504,0.021 -0.24874,0.063 -0.0737,0.042 -0.13205,0.10185 -0.17504,0.17965 -0.043,0.0778 -0.0645,0.16787 -0.0645,0.27024 v 0 c 0,0.10236 0.0215,0.19244 0.0645,0.27023 0.043,0.0778 0.10134,0.13768 0.17504,0.17965 0.0737,0.042 0.15661,0.063 0.24874,0.063 z m 3.08931,-0.50362 c 0,0.0266 -0.002,0.0645 -0.006,0.11362 v 0 h -1.2867 c 0.0225,0.12079 0.0814,0.2165 0.17657,0.28713 0.0952,0.0706 0.21343,0.10594 0.35469,0.10594 v 0 c 0.18016,0 0.32859,-0.0594 0.44528,-0.17811 v 0 l 0.20575,0.23646 c -0.0737,0.088 -0.16685,0.15457 -0.27945,0.19961 -0.1126,0.045 -0.23953,0.0676 -0.38079,0.0676 v 0 c -0.18016,0 -0.33882,-0.0358 -0.47599,-0.10748 -0.13716,-0.0717 -0.24311,-0.17146 -0.31784,-0.29941 -0.0747,-0.12796 -0.11208,-0.2728 -0.11208,-0.43453 v 0 c 0,-0.15969 0.0363,-0.30351 0.10902,-0.43146 0.0727,-0.12795 0.1735,-0.22776 0.30248,-0.29941 0.12897,-0.0717 0.27433,-0.10748 0.43606,-0.10748 v 0 c 0.15969,0 0.30249,0.0353 0.42839,0.10594 0.12591,0.0706 0.22418,0.16993 0.29481,0.29788 0.0706,0.12795 0.10594,0.27586 0.10594,0.44374 z m -0.82914,-0.54047 c -0.12283,0 -0.22673,0.0363 -0.31169,0.10901 -0.085,0.0727 -0.13666,0.16941 -0.15508,0.2902 v 0 h 0.93047 c -0.0164,-0.11874 -0.0665,-0.21496 -0.15047,-0.28866 -0.0839,-0.0737 -0.18835,-0.11055 -0.31323,-0.11055 z m 1.87017,-0.0491 c 0.11055,-0.17197 0.30504,-0.25795 0.58347,-0.25795 v 0 0.36543 c -0.0328,-0.006 -0.0624,-0.009 -0.0891,-0.009 v 0 c -0.14945,0 -0.26615,0.0435 -0.35008,0.13051 -0.0839,0.087 -0.12591,0.21241 -0.12591,0.37618 v 0 0.79536 h -0.38386 v -1.63984 h 0.36544 z m -53.39451,-6.43456 c 0.36699,0.11621 0.65446,0.31041 0.86243,0.58259 0.20796,0.27217 0.31194,0.60704 0.31194,1.00461 v 0 c 0,0.5627 -0.21867,0.99543 -0.656,1.29819 -0.43733,0.30276 -1.07498,0.45414 -1.91294,0.45414 v 0 h -3.32128 v -6.42216 h 3.13778 c 0.78292,0 1.38387,0.14984 1.80285,0.44955 0.41898,0.2997 0.62847,0.70644 0.62847,1.22021 v 0 c 0,0.31193 -0.0749,0.59023 -0.22478,0.83488 -0.14986,0.24465 -0.35935,0.43732 -0.62847,0.57799 z m -1.76156,-1.96334 h -1.47715 v 1.51379 h 1.47715 c 0.36699,0 0.64529,-0.0642 0.8349,-0.19266 0.18961,-0.12845 0.28442,-0.31805 0.28442,-0.56882 v 0 c 0,-0.25077 -0.0948,-0.43885 -0.28442,-0.56424 -0.18961,-0.12538 -0.46791,-0.18807 -0.8349,-0.18807 z m 0.25689,4.18358 c 0.39146,0 0.68658,-0.0642 0.88537,-0.19267 0.19879,-0.12844 0.29818,-0.32722 0.29818,-0.59634 v 0 c 0,-0.53212 -0.39452,-0.79818 -1.18355,-0.79818 v 0 h -1.73404 v 1.58719 z m 5.07366,-3.16521 c 0.17126,-0.23854 0.40216,-0.41897 0.69269,-0.5413 0.29054,-0.12232 0.62542,-0.18349 1.00464,-0.18349 v 0 1.32113 c -0.15903,-0.0122 -0.26606,-0.0184 -0.32111,-0.0184 v 0 c -0.40981,0 -0.73093,0.11469 -0.96336,0.34405 -0.23243,0.22936 -0.34864,0.5734 -0.34864,1.03213 v 0 2.33033 h -1.43126 v -4.93589 h 1.36704 z m 6.12875,-0.65139 h 1.43127 v 4.93589 h -1.35786 v -0.58717 c -0.18962,0.21407 -0.41593,0.37768 -0.67894,0.49084 -0.26301,0.11315 -0.54743,0.16973 -0.85326,0.16973 v 0 c -0.64835,0 -1.16214,-0.18655 -1.54136,-0.55965 -0.37922,-0.3731 -0.56884,-0.92662 -0.56884,-1.66059 v 0 -2.78905 h 1.43127 v 2.57804 c 0,0.79512 0.33335,1.19269 1.00005,1.19269 v 0 c 0.34253,0 0.61777,-0.11163 0.82573,-0.33487 0.20796,-0.22325 0.31194,-0.55506 0.31194,-0.99544 v 0 z m 5.76177,-0.0734 c 0.61165,0 1.10556,0.18349 1.48173,0.55047 0.37617,0.36698 0.56425,0.91134 0.56425,1.63307 v 0 2.82575 h -1.43127 v -2.60556 c 0,-0.39145 -0.0856,-0.68351 -0.25689,-0.87617 -0.17127,-0.19267 -0.41898,-0.289 -0.74316,-0.289 v 0 c -0.36088,0 -0.64835,0.11162 -0.86243,0.33487 -0.21408,0.22325 -0.32112,0.55506 -0.32112,0.99544 v 0 2.44042 h -1.43126 v -4.93589 h 1.36704 v 0.57799 c 0.18961,-0.20795 0.4251,-0.36851 0.70646,-0.48166 0.28136,-0.11315 0.59024,-0.16973 0.92665,-0.16973 z m 5.74342,5.08269 c -0.51991,0 -0.98629,-0.10857 -1.39916,-0.3257 -0.41286,-0.21713 -0.73551,-0.51836 -0.96794,-0.90369 -0.23242,-0.38533 -0.34864,-0.82265 -0.34864,-1.31196 v 0 c 0,-0.4893 0.11622,-0.92662 0.34864,-1.31195 0.23243,-0.38533 0.55508,-0.68656 0.96794,-0.90369 0.41287,-0.21713 0.87925,-0.3257 1.39916,-0.3257 v 0 c 0.5199,0 0.98476,0.10857 1.39457,0.3257 0.4098,0.21713 0.73092,0.51836 0.96335,0.90369 0.23243,0.38533 0.34864,0.82265 0.34864,1.31195 v 0 c 0,0.48931 -0.11621,0.92663 -0.34864,1.31196 -0.23243,0.38533 -0.55355,0.68656 -0.96335,0.90369 -0.40981,0.21713 -0.87467,0.3257 -1.39457,0.3257 z m 0,-1.17434 c 0.36699,0 0.66823,-0.12386 0.90371,-0.37157 0.23549,-0.24771 0.35323,-0.57952 0.35323,-0.99544 v 0 c 0,-0.41591 -0.11774,-0.74772 -0.35323,-0.99543 -0.23548,-0.24771 -0.53672,-0.37157 -0.90371,-0.37157 v 0 c -0.36699,0 -0.66976,0.12386 -0.90831,0.37157 -0.23854,0.24771 -0.35781,0.57952 -0.35781,0.99543 v 0 c 0,0.41592 0.11927,0.74773 0.35781,0.99544 0.23855,0.24771 0.54132,0.37157 0.90831,0.37157 z m 10.75285,1.10094 -2.05515,-2.52299 -0.86243,0.8991 v 1.62389 h -1.47715 v -6.42216 h 1.47715 v 3.00006 l 2.84418,-3.00006 h 1.65146 l -2.66069,2.86245 2.81666,3.55971 z m 6.92696,-2.4496 c 0,0.0183 -0.009,0.1468 -0.0275,0.38533 v 0 h -3.73414 c 0.0673,0.30582 0.22631,0.54741 0.47709,0.72479 0.25078,0.17737 0.56272,0.26606 0.93583,0.26606 v 0 c 0.25689,0 0.48473,-0.0382 0.68352,-0.11468 0.19879,-0.0764 0.38381,-0.19725 0.55507,-0.3624 v 0 l 0.76151,0.82571 c -0.46485,0.53213 -1.14379,0.79819 -2.0368,0.79819 v 0 c -0.5566,0 -1.04898,-0.10857 -1.47714,-0.3257 -0.42816,-0.21713 -0.75845,-0.51836 -0.99088,-0.90369 -0.23243,-0.38533 -0.34864,-0.82265 -0.34864,-1.31196 v 0 c 0,-0.48319 0.11468,-0.91898 0.34405,-1.30737 0.22937,-0.38838 0.54437,-0.69114 0.945,-0.90827 0.40064,-0.21713 0.84867,-0.3257 1.34411,-0.3257 v 0 c 0.48321,0 0.92054,0.10398 1.312,0.31193 0.39145,0.20796 0.69881,0.50613 0.92206,0.89452 0.22326,0.38839 0.33488,0.83947 0.33488,1.35324 z m -2.55976,-1.47709 c -0.32418,0 -0.59636,0.0917 -0.81656,0.27523 -0.22019,0.18349 -0.35476,0.43426 -0.40369,0.75231 v 0 h 2.43132 c -0.0489,-0.31193 -0.1835,-0.56117 -0.40369,-0.74772 -0.2202,-0.18655 -0.48932,-0.27982 -0.80738,-0.27982 z m 4.88098,-0.35781 c 0.17127,-0.23854 0.40216,-0.41897 0.6927,-0.5413 0.29053,-0.12232 0.62541,-0.18349 1.00464,-0.18349 v 0 1.32113 c -0.15903,-0.0122 -0.26607,-0.0184 -0.32112,-0.0184 v 0 c -0.40981,0 -0.73093,0.11469 -0.96335,0.34405 -0.23243,0.22936 -0.34864,0.5734 -0.34864,1.03213 v 0 2.33033 h -1.43127 v -4.93589 h 1.36704 z m 5.52322,3.03677 0.38535,1.00919 c -0.14068,0.10398 -0.31348,0.18196 -0.51838,0.23395 -0.2049,0.052 -0.42051,0.078 -0.64682,0.078 v 0 c -0.58719,0 -1.04134,-0.14985 -1.36246,-0.44956 -0.32111,-0.2997 -0.48167,-0.74007 -0.48167,-1.32113 v 0 -2.02757 h -0.76151 v -1.10094 h 0.76151 v -1.20186 h 1.43126 v 1.20186 h 1.22942 v 1.10094 h -1.22942 v 2.00923 c 0,0.20795 0.0535,0.3685 0.16056,0.48166 0.10704,0.11315 0.25843,0.16973 0.45415,0.16973 v 0 c 0.22631,0 0.41898,-0.0612 0.57801,-0.18349 z m 5.87187,-1.20187 c 0,0.0183 -0.009,0.1468 -0.0275,0.38533 v 0 h -3.73414 c 0.0673,0.30582 0.22631,0.54741 0.47709,0.72479 0.25078,0.17737 0.56272,0.26606 0.93583,0.26606 v 0 c 0.25689,0 0.48473,-0.0382 0.68352,-0.11468 0.19879,-0.0764 0.38381,-0.19725 0.55507,-0.3624 v 0 l 0.76151,0.82571 c -0.46486,0.53213 -1.14379,0.79819 -2.03681,0.79819 v 0 c -0.5566,0 -1.04898,-0.10857 -1.47714,-0.3257 -0.42815,-0.21713 -0.75844,-0.51836 -0.99087,-0.90369 -0.23243,-0.38533 -0.34865,-0.82265 -0.34865,-1.31196 v 0 c 0,-0.48319 0.11469,-0.91898 0.34406,-1.30737 0.22937,-0.38838 0.54437,-0.69114 0.945,-0.90827 0.40063,-0.21713 0.84867,-0.3257 1.34411,-0.3257 v 0 c 0.4832,0 0.92054,0.10398 1.31199,0.31193 0.39146,0.20796 0.69881,0.50613 0.92207,0.89452 0.22325,0.38839 0.33488,0.83947 0.33488,1.35324 z m -2.55977,-1.47709 c -0.32417,0 -0.59636,0.0917 -0.81655,0.27523 -0.2202,0.18349 -0.35476,0.43426 -0.40369,0.75231 v 0 h 2.43132 c -0.0489,-0.31193 -0.1835,-0.56117 -0.40369,-0.74772 -0.2202,-0.18655 -0.48933,-0.27982 -0.80739,-0.27982 z m 5.17458,4.00009 c -0.40981,0 -0.81044,-0.0505 -1.20189,-0.15138 -0.39146,-0.10092 -0.7034,-0.22784 -0.93583,-0.38075 v 0 l 0.47709,-1.02754 c 0.22019,0.14067 0.48626,0.25535 0.7982,0.34404 0.31194,0.0887 0.61777,0.13303 0.91748,0.13303 v 0 c 0.60554,0 0.9083,-0.14985 0.9083,-0.44955 v 0 c 0,-0.14067 -0.0826,-0.24159 -0.24771,-0.30276 -0.16515,-0.0612 -0.41898,-0.11315 -0.76151,-0.15596 v 0 c -0.40369,-0.0612 -0.73704,-0.13151 -1.00005,-0.21102 -0.26301,-0.0795 -0.49085,-0.22019 -0.68352,-0.42203 -0.19267,-0.20184 -0.28901,-0.4893 -0.28901,-0.8624 v 0 c 0,-0.31194 0.0902,-0.5887 0.27066,-0.8303 0.18043,-0.24159 0.44344,-0.42967 0.78903,-0.56423 0.34558,-0.13456 0.75386,-0.20184 1.22483,-0.20184 v 0 c 0.34864,0 0.69576,0.0382 1.04134,0.11468 0.34558,0.0765 0.63153,0.18196 0.85784,0.31652 v 0 l -0.47708,1.01838 c -0.43428,-0.24466 -0.90831,-0.36698 -1.4221,-0.36698 v 0 c -0.30582,0 -0.53519,0.0428 -0.68811,0.12844 -0.15291,0.0856 -0.22937,0.19572 -0.22937,0.33028 v 0 c 0,0.15291 0.0826,0.25995 0.24772,0.32111 0.16515,0.0612 0.42816,0.11927 0.78903,0.17431 v 0 c 0.40369,0.0673 0.73399,0.13915 0.99088,0.21561 0.2569,0.0764 0.48015,0.2156 0.66976,0.41744 0.18961,0.20184 0.28442,0.48319 0.28442,0.84405 v 0 c 0,0.30582 -0.0917,0.578 -0.27524,0.81653 -0.1835,0.23854 -0.4511,0.42356 -0.8028,0.55506 -0.3517,0.1315 -0.76915,0.19726 -1.25236,0.19726 z m 4.67914,-1.17434 h 2.59647 v 1.10094 h -4.4039 v -0.86241 l 2.51389,-2.97254 h -2.44967 v -1.10094 h 4.25711 v 0.8624 z"
       style="fill:#ff834f;fill-opacity:1;stroke-width:0.264583"
       id="path1648"
       sodipodi:nodetypes="cccccccccccccccccsssscccscsscsccccccccccccccsccssscssccssscssccssssccssscssscssccssccccccssssscccccccccccscssccccscccccssccssssccscsscsccsccccsccsssccccccssccsssscccsscsscsscscccccccccccccccccccccccccccccccsscscccsssscccccccscsscsssscccccccccccsscsssssssccccscccssscccssccssccssccccscscccscsscccsssscssccsscssssccsscsscssccssccccccssccsscscccsscsscsscsccccccsccsscsccccccccccccssscsssssccccccssssssscccccccccccsscssssssscccccssssscccccccccccscssccccsccssscscccssssssssccccscccssscccssscssccssccccscscccscccccccccscccssscccssssssccssccccscscccscccccsccssscssccssccsscssssscsscscscsscsssscccccccccccsscsssssssccccscccssscccssccssccssccccscscccscsccsssscccccccssssscccscssccsccscssssscssscccsccsccssssccccccccccccsssscccsssssccssscccscssssccccccssssssssssssssssssssssssssssssccccccccccccccsccssscsccsssssssssscsccscsccsscssccssssccccccccssssscccccccccccsssssccsccssscsccssssssssssssccscsccssscsccsssssssssssscssscsccsscsscsscssscssccccccccccc" />
    <path
       id="rect1828"
       style="fill:none;fill-opacity:1;stroke:#ff834f;stroke-width:0.711;stroke-miterlimit:4;stroke-dasharray:none;stroke-opacity:1"
       d="m 107.21105,153.85125 h 0.0425 l 0,23.26159 h -0.0425 z"
       sodipodi:nodetypes="ccccc" />
    <path
       d="m 104.39682,160.75692 c 0,-1.90947 -3.31998,-3.40792 -7.544564,-3.40792 -4.23319,0 -7.544556,1.49845 -7.544556,3.40792 v 9.84699 c 0,1.90946 3.319976,3.40792 7.544556,3.40792 4.224584,0 7.544564,-1.49846 7.544564,-3.40792 z m -0.76724,6.43787 c 0,1.55464 -3.57593,2.64809 -6.777324,2.64809 -3.20139,0 -6.777326,-1.08484 -6.777326,-2.64809 v -1.58599 c 1.208981,1.13612 3.754782,1.90493 6.777326,1.90493 3.022545,0 5.568254,-0.76881 6.777324,-1.90493 z m 0,-3.08491 c 0,1.55464 -3.57593,2.64809 -6.777324,2.64809 -3.20139,0 -6.777326,-1.08493 -6.777326,-2.64809 v -1.84803 c 1.209074,1.13613 3.754782,1.90493 6.777326,1.90493 3.022545,0 5.568254,-0.7688 6.777324,-1.90493 z m -6.80315,-5.99022 c 3.20537,0 6.78584,1.08623 6.78584,2.65142 0,1.55668 -3.58047,2.64282 -6.78584,2.64282 -3.213889,0 -6.785844,-1.08623 -6.785844,-2.65143 0,-1.56519 3.571955,-2.64281 6.785844,-2.64281 z m 0.02582,15.11864 c -3.209816,0 -6.777326,-1.08484 -6.777326,-2.64809 v -1.90494 c 1.20898,1.13613 3.754781,1.90494 6.777326,1.90494 3.022544,0 5.56826,-0.76881 6.77733,-1.90494 v 1.90494 c 0,1.56325 -3.56751,2.64809 -6.77733,2.64809 z"
       style="fill:#4f6fff;fill-opacity:1;stroke:none;stroke-width:0.0700042;stroke-opacity:1"
       id="path4504"
       sodipodi:nodetypes="sssssssssscscsssscscsssssssscscss" />
  </g>
</svg>
