<svg xmlns="http://www.w3.org/2000/svg" version="1.1" preserveAspectRatio="none" width="500" height="500" viewBox="0 0 500 500"><rect width="100%" height="100%" fill="#FFFFFF" fill-opacity="1"/><svg xmlns="http://www.w3.org/2000/svg" xmlns:xlink="http://www.w3.org/1999/xlink" viewBox="29.8995 190.318 515.4347 121.48" width="333" height="78.48295817103505" x="83.5px" y="210.7585px" preserveAspectRatio="none"><defs/><style>.companyName {fill:#4D4D4D;fill-opacity:1;}.icon1 {fill:#FF834F;fill-opacity:1;}.icon2 {fill:#FF4949;fill-opacity:1;}.icon3 {fill:#FFAE78;fill-opacity:1;}.icon3-str {stroke:#FFAE78;stroke-opacity:1;}.shapeStroke-str {stroke:#313131;stroke-opacity:1;}.text {fill:#4D4D4D;fill-opacity:1;}</style><g opacity="1" transform="rotate(0 29.8995 202.318)">
<svg width="88.2736" height="97.48" x="29.8995" y="202.318" version="1.1" preserveAspectRatio="none" viewBox="18.5 10 163 180">
  <g transform="matrix(1 0 0 1 0 0)"><g><path d="M181.5 46.814C181.5 26.187 145.636 10 100 10c-45.729 0-81.5 16.187-81.5 36.814v106.372C18.5 173.813 54.364 190 100 190s81.5-16.187 81.5-36.814V46.814zm-8.288 69.545c0 16.794-38.629 28.606-73.212 28.606s-73.212-11.719-73.212-28.606V95.781c13.06 12.273 40.561 20.578 73.212 20.578s60.151-8.305 73.212-20.578v20.578zm0-36.77c0 16.794-38.629 28.606-73.212 28.606s-73.212-11.72-73.212-28.606V63.071C39.849 75.344 67.349 83.649 100 83.649s60.151-8.305 73.212-20.578v16.518zM99.721 18.325c34.626 0 73.304 11.734 73.304 28.642 0 16.816-38.678 28.549-73.304 28.549-34.718 0-73.304-11.734-73.304-28.642s38.586-28.549 73.304-28.549zM100 181.644c-34.674 0-73.212-11.719-73.212-28.606V132.46c13.06 12.273 40.561 20.578 73.212 20.578s60.151-8.305 73.212-20.578v20.578c0 16.887-38.538 28.606-73.212 28.606z" data-color="1" class="icon1"/></g></g>
</svg>
</g><g opacity="1" transform="rotate(0 152.1731 267.318)">
<svg width="343.3676" height="17.48" x="152.1731" y="267.318" version="1.1" preserveAspectRatio="none" viewBox="3.76 -30.88 764.52 38.92">
  <g transform="matrix(1 0 0 1 0 0)" class="text"><path id="id-6izo4zJp31" d="M24.20-23.64L8.96-23.64L8.96-15.12L22.48-15.12L22.48-10.72L8.96-10.72L8.96 0L3.76 0L3.76-28L24.20-28L24.20-23.64Z M47.84-21.36L52.84-21.36L52.84 0L48.08 0L48.08-2.72Q46.88-1.28 45.08-0.50Q43.28 0.28 41.20 0.28L41.20 0.28Q36.92 0.28 34.46-2.10Q32-4.48 32-9.16L32-9.16L32-21.36L37-21.36L37-9.84Q37-6.96 38.30-5.54Q39.60-4.12 42-4.12L42-4.12Q44.68-4.12 46.26-5.78Q47.84-7.44 47.84-10.56L47.84-10.56L47.84-21.36Z M63.40 0L63.40-29.68L68.40-29.68L68.40 0L63.40 0Z M78.96 0L78.96-29.68L83.96-29.68L83.96 0L78.96 0Z M118.72 0.40Q115.48 0.40 112.46-0.52Q109.44-1.44 107.68-2.96L107.68-2.96L109.48-7Q111.20-5.64 113.70-4.78Q116.20-3.92 118.72-3.92L118.72-3.92Q121.84-3.92 123.38-4.92Q124.92-5.92 124.92-7.56L124.92-7.56Q124.92-8.76 124.06-9.54Q123.20-10.32 121.88-10.76Q120.56-11.20 118.28-11.76L118.28-11.76Q115.08-12.52 113.10-13.28Q111.12-14.04 109.70-15.66Q108.28-17.28 108.28-20.04L108.28-20.04Q108.28-22.36 109.54-24.26Q110.80-26.16 113.34-27.28Q115.88-28.40 119.56-28.40L119.56-28.40Q122.12-28.40 124.60-27.76Q127.08-27.12 128.88-25.92L128.88-25.92L127.24-21.88Q125.40-22.96 123.40-23.52Q121.40-24.08 119.52-24.08L119.52-24.08Q116.44-24.08 114.94-23.04Q113.44-22 113.44-20.28L113.44-20.28Q113.44-19.08 114.30-18.32Q115.16-17.56 116.48-17.12Q117.80-16.68 120.08-16.12L120.08-16.12Q123.20-15.40 125.20-14.62Q127.20-13.84 128.62-12.24Q130.04-10.64 130.04-7.92L130.04-7.92Q130.04-5.60 128.78-3.72Q127.52-1.84 124.96-0.72Q122.40 0.40 118.72 0.40L118.72 0.40Z M150.16-4.72L151.56-1.16Q150.68-0.44 149.42-0.08Q148.16 0.28 146.76 0.28L146.76 0.28Q143.24 0.28 141.32-1.56Q139.40-3.40 139.40-6.92L139.40-6.92L139.40-17.20L135.88-17.20L135.88-21.20L139.40-21.20L139.40-26.08L144.40-26.08L144.40-21.20L150.12-21.20L150.12-17.20L144.40-17.20L144.40-7.04Q144.40-5.48 145.16-4.66Q145.92-3.84 147.36-3.84L147.36-3.84Q149.04-3.84 150.16-4.72L150.16-4.72Z M167.84-21.60Q172.56-21.60 175.06-19.34Q177.56-17.08 177.56-12.52L177.56-12.52L177.56 0L172.84 0L172.84-2.60Q171.92-1.20 170.22-0.46Q168.52 0.28 166.12 0.28L166.12 0.28Q163.72 0.28 161.92-0.54Q160.12-1.36 159.14-2.82Q158.16-4.28 158.16-6.12L158.16-6.12Q158.16-9 160.30-10.74Q162.44-12.48 167.04-12.48L167.04-12.48L172.56-12.48L172.56-12.80Q172.56-15.04 171.22-16.24Q169.88-17.44 167.24-17.44L167.24-17.44Q165.44-17.44 163.70-16.88Q161.96-16.32 160.76-15.32L160.76-15.32L158.80-18.96Q160.48-20.24 162.84-20.92Q165.20-21.60 167.84-21.60L167.84-21.60ZM167.16-3.36Q169.04-3.36 170.50-4.22Q171.96-5.08 172.56-6.68L172.56-6.68L172.56-9.16L167.40-9.16Q163.08-9.16 163.08-6.32L163.08-6.32Q163.08-4.96 164.16-4.16Q165.24-3.36 167.16-3.36L167.16-3.36Z M197.96 0.28Q194.64 0.28 192.00-1.12Q189.36-2.52 187.88-5.02Q186.40-7.52 186.40-10.68L186.40-10.68Q186.40-13.84 187.88-16.32Q189.36-18.80 191.98-20.20Q194.60-21.60 197.96-21.60L197.96-21.60Q201.12-21.60 203.50-20.32Q205.88-19.04 207.08-16.64L207.08-16.64L203.24-14.40Q202.32-15.88 200.94-16.62Q199.56-17.36 197.92-17.36L197.92-17.36Q195.12-17.36 193.28-15.54Q191.44-13.72 191.44-10.68L191.44-10.68Q191.44-7.64 193.26-5.82Q195.08-4 197.92-4L197.92-4Q199.56-4 200.94-4.74Q202.32-5.48 203.24-6.96L203.24-6.96L207.08-4.72Q205.84-2.32 203.46-1.02Q201.08 0.28 197.96 0.28L197.96 0.28Z M231.32 0L223.92-9.16L220.20-5.64L220.20 0L215.20 0L215.20-29.68L220.20-29.68L220.20-11.76L230.56-21.36L236.56-21.36L227.64-12.40L237.40 0L231.32 0Z M265.84 0L265.84-23.60L256.56-23.60L256.56-28L280.32-28L280.32-23.60L271.04-23.60L271.04 0L265.84 0Z M301.64-21.36L306.44-21.36L296.44 1.72Q295.04 5.20 293.04 6.62Q291.04 8.04 288.20 8.04L288.20 8.04Q286.60 8.04 285.04 7.52Q283.48 7 282.48 6.08L282.48 6.08L284.48 2.40Q285.20 3.08 286.18 3.48Q287.16 3.88 288.16 3.88L288.16 3.88Q289.48 3.88 290.34 3.20Q291.20 2.52 291.92 0.92L291.92 0.92L292.28 0.08L282.96-21.36L288.16-21.36L294.88-5.56L301.64-21.36Z M325.40-21.60Q328.52-21.60 330.98-20.24Q333.44-18.88 334.84-16.40Q336.24-13.92 336.24-10.68L336.24-10.68Q336.24-7.44 334.84-4.94Q333.44-2.44 330.98-1.08Q328.52 0.28 325.40 0.28L325.40 0.28Q321.08 0.28 318.56-2.60L318.56-2.60L318.56 7.76L313.56 7.76L313.56-21.36L318.32-21.36L318.32-18.56Q319.56-20.08 321.38-20.84Q323.20-21.60 325.40-21.60L325.40-21.60ZM324.84-4Q327.60-4 329.38-5.84Q331.16-7.68 331.16-10.68L331.16-10.68Q331.16-13.68 329.38-15.52Q327.60-17.36 324.84-17.36L324.84-17.36Q323.04-17.36 321.60-16.54Q320.16-15.72 319.32-14.20Q318.48-12.68 318.48-10.68L318.48-10.68Q318.48-8.68 319.32-7.16Q320.16-5.64 321.60-4.82Q323.04-4 324.84-4L324.84-4Z M365.08-10.56Q365.08-10.04 365-9.08L365-9.08L348.24-9.08Q348.68-6.72 350.54-5.34Q352.40-3.96 355.16-3.96L355.16-3.96Q358.68-3.96 360.96-6.28L360.96-6.28L363.64-3.20Q362.20-1.48 360-0.60Q357.80 0.28 355.04 0.28L355.04 0.28Q351.52 0.28 348.84-1.12Q346.16-2.52 344.70-5.02Q343.24-7.52 343.24-10.68L343.24-10.68Q343.24-13.80 344.66-16.30Q346.08-18.80 348.60-20.20Q351.12-21.60 354.28-21.60L354.28-21.60Q357.40-21.60 359.86-20.22Q362.32-18.84 363.70-16.34Q365.08-13.84 365.08-10.56L365.08-10.56ZM354.28-17.60Q351.88-17.60 350.22-16.18Q348.56-14.76 348.20-12.40L348.20-12.40L360.32-12.40Q360-14.72 358.36-16.16Q356.72-17.60 354.28-17.60L354.28-17.60Z M380.48 0.28Q377.88 0.28 375.40-0.40Q372.92-1.08 371.44-2.12L371.44-2.12L373.36-5.92Q374.80-4.96 376.82-4.38Q378.84-3.80 380.80-3.80L380.80-3.80Q385.28-3.80 385.28-6.16L385.28-6.16Q385.28-7.28 384.14-7.72Q383-8.16 380.48-8.56L380.48-8.56Q377.84-8.96 376.18-9.48Q374.52-10 373.30-11.30Q372.08-12.60 372.08-14.92L372.08-14.92Q372.08-17.96 374.62-19.78Q377.16-21.60 381.48-21.60L381.48-21.60Q383.68-21.60 385.88-21.10Q388.08-20.60 389.48-19.76L389.48-19.76L387.56-15.96Q384.84-17.56 381.44-17.56L381.44-17.56Q379.24-17.56 378.10-16.90Q376.96-16.24 376.96-15.16L376.96-15.16Q376.96-13.96 378.18-13.46Q379.40-12.96 381.96-12.52L381.96-12.52Q384.52-12.12 386.16-11.60Q387.80-11.08 388.98-9.84Q390.16-8.60 390.16-6.32L390.16-6.32Q390.16-3.32 387.56-1.52Q384.96 0.28 380.48 0.28L380.48 0.28Z M408.28 0.28Q404.96 0.28 402.32-1.12Q399.68-2.52 398.20-5.02Q396.72-7.52 396.72-10.68L396.72-10.68Q396.72-13.84 398.20-16.32Q399.68-18.80 402.30-20.20Q404.92-21.60 408.28-21.60L408.28-21.60Q411.44-21.60 413.82-20.32Q416.20-19.04 417.40-16.64L417.40-16.64L413.56-14.40Q412.64-15.88 411.26-16.62Q409.88-17.36 408.24-17.36L408.24-17.36Q405.44-17.36 403.60-15.54Q401.76-13.72 401.76-10.68L401.76-10.68Q401.76-7.64 403.58-5.82Q405.40-4 408.24-4L408.24-4Q409.88-4 411.26-4.74Q412.64-5.48 413.56-6.96L413.56-6.96L417.40-4.72Q416.16-2.32 413.78-1.02Q411.40 0.28 408.28 0.28L408.28 0.28Z M430.48-18.24Q432.64-21.60 438.08-21.60L438.08-21.60L438.08-16.84Q437.44-16.96 436.92-16.96L436.92-16.96Q434.00-16.96 432.36-15.26Q430.72-13.56 430.72-10.36L430.72-10.36L430.72 0L425.72 0L425.72-21.36L430.48-21.36L430.48-18.24Z M446.32 0L446.32-21.36L451.32-21.36L451.32 0L446.32 0ZM448.84-24.88Q447.48-24.88 446.56-25.74Q445.64-26.60 445.64-27.88L445.64-27.88Q445.64-29.16 446.56-30.02Q447.48-30.88 448.84-30.88L448.84-30.88Q450.20-30.88 451.12-30.06Q452.04-29.24 452.04-28L452.04-28Q452.04-26.68 451.14-25.78Q450.24-24.88 448.84-24.88L448.84-24.88Z M473.72-21.60Q476.84-21.60 479.30-20.24Q481.76-18.88 483.16-16.40Q484.56-13.92 484.56-10.68L484.56-10.68Q484.56-7.44 483.16-4.94Q481.76-2.44 479.30-1.08Q476.84 0.28 473.72 0.28L473.72 0.28Q469.40 0.28 466.88-2.60L466.88-2.60L466.88 7.76L461.88 7.76L461.88-21.36L466.64-21.36L466.64-18.56Q467.88-20.08 469.70-20.84Q471.52-21.60 473.72-21.60L473.72-21.60ZM473.16-4Q475.92-4 477.70-5.84Q479.48-7.68 479.48-10.68L479.48-10.68Q479.48-13.68 477.70-15.52Q475.92-17.36 473.16-17.36L473.16-17.36Q471.36-17.36 469.92-16.54Q468.48-15.72 467.64-14.20Q466.80-12.68 466.80-10.68L466.80-10.68Q466.80-8.68 467.64-7.16Q468.48-5.64 469.92-4.82Q471.36-4 473.16-4L473.16-4Z M504.76-4.72L506.16-1.16Q505.28-0.44 504.02-0.08Q502.76 0.28 501.36 0.28L501.36 0.28Q497.84 0.28 495.92-1.56Q494.00-3.40 494.00-6.92L494.00-6.92L494.00-17.20L490.48-17.20L490.48-21.20L494.00-21.20L494.00-26.08L499.00-26.08L499.00-21.20L504.72-21.20L504.72-17.20L499.00-17.20L499.00-7.04Q499.00-5.48 499.76-4.66Q500.52-3.84 501.96-3.84L501.96-3.84Q503.64-3.84 504.76-4.72L504.76-4.72Z M529.80 0L529.80-28L542.04-28Q546.52-28 550.00-26.26Q553.48-24.52 555.40-21.34Q557.32-18.16 557.32-14L557.32-14Q557.32-9.84 555.40-6.66Q553.48-3.48 550.00-1.74Q546.52 0 542.04 0L542.04 0L529.80 0ZM535.00-4.40L541.80-4.40Q544.88-4.40 547.22-5.58Q549.56-6.76 550.82-8.94Q552.08-11.12 552.08-14L552.08-14Q552.08-16.88 550.82-19.06Q549.56-21.24 547.22-22.42Q544.88-23.60 541.80-23.60L541.80-23.60L535.00-23.60L535.00-4.40Z M586.44-10.56Q586.44-10.04 586.36-9.08L586.36-9.08L569.60-9.08Q570.04-6.72 571.90-5.34Q573.76-3.96 576.52-3.96L576.52-3.96Q580.04-3.96 582.32-6.28L582.32-6.28L585-3.20Q583.56-1.48 581.36-0.60Q579.16 0.28 576.40 0.28L576.40 0.28Q572.88 0.28 570.20-1.12Q567.52-2.52 566.06-5.02Q564.60-7.52 564.60-10.68L564.60-10.68Q564.60-13.80 566.02-16.30Q567.44-18.80 569.96-20.20Q572.48-21.60 575.64-21.60L575.64-21.60Q578.76-21.60 581.22-20.22Q583.68-18.84 585.06-16.34Q586.44-13.84 586.44-10.56L586.44-10.56ZM575.64-17.60Q573.24-17.60 571.58-16.18Q569.92-14.76 569.56-12.40L569.56-12.40L581.68-12.40Q581.36-14.72 579.72-16.16Q578.08-17.60 575.64-17.60L575.64-17.60Z M610.04-21.36L614.84-21.36L605.68 0L600.52 0L591.36-21.36L596.56-21.36L603.20-5.52L610.04-21.36Z M641.44-10.56Q641.44-10.04 641.36-9.08L641.36-9.08L624.60-9.08Q625.04-6.72 626.90-5.34Q628.76-3.96 631.52-3.96L631.52-3.96Q635.04-3.96 637.32-6.28L637.32-6.28L640-3.20Q638.56-1.48 636.36-0.60Q634.16 0.28 631.40 0.28L631.40 0.28Q627.88 0.28 625.20-1.12Q622.52-2.52 621.06-5.02Q619.60-7.52 619.60-10.68L619.60-10.68Q619.60-13.80 621.02-16.30Q622.44-18.80 624.96-20.20Q627.48-21.60 630.64-21.60L630.64-21.60Q633.76-21.60 636.22-20.22Q638.68-18.84 640.06-16.34Q641.44-13.84 641.44-10.56L641.44-10.56ZM630.64-17.60Q628.24-17.60 626.58-16.18Q624.92-14.76 624.56-12.40L624.56-12.40L636.68-12.40Q636.36-14.72 634.72-16.16Q633.08-17.60 630.64-17.60L630.64-17.60Z M650.24 0L650.24-29.68L655.24-29.68L655.24 0L650.24 0Z M675.40 0.28Q672.16 0.28 669.56-1.12Q666.96-2.52 665.50-5.02Q664.04-7.52 664.04-10.68L664.04-10.68Q664.04-13.84 665.50-16.32Q666.96-18.80 669.56-20.20Q672.16-21.60 675.40-21.60L675.40-21.60Q678.68-21.60 681.28-20.20Q683.88-18.80 685.34-16.32Q686.80-13.84 686.80-10.68L686.80-10.68Q686.80-7.52 685.34-5.02Q683.88-2.52 681.28-1.12Q678.68 0.28 675.40 0.28L675.40 0.28ZM675.40-4Q678.16-4 679.96-5.84Q681.76-7.68 681.76-10.68L681.76-10.68Q681.76-13.68 679.96-15.52Q678.16-17.36 675.40-17.36L675.40-17.36Q672.64-17.36 670.86-15.52Q669.08-13.68 669.08-10.68L669.08-10.68Q669.08-7.68 670.86-5.84Q672.64-4 675.40-4L675.40-4Z M707.44-21.60Q710.56-21.60 713.02-20.24Q715.48-18.88 716.88-16.40Q718.28-13.92 718.28-10.68L718.28-10.68Q718.28-7.44 716.88-4.94Q715.48-2.44 713.02-1.08Q710.56 0.28 707.44 0.28L707.44 0.28Q703.12 0.28 700.60-2.60L700.60-2.60L700.60 7.76L695.60 7.76L695.60-21.36L700.36-21.36L700.36-18.56Q701.60-20.08 703.42-20.84Q705.24-21.60 707.44-21.60L707.44-21.60ZM706.88-4Q709.64-4 711.42-5.84Q713.20-7.68 713.20-10.68L713.20-10.68Q713.20-13.68 711.42-15.52Q709.64-17.36 706.88-17.36L706.88-17.36Q705.08-17.36 703.64-16.54Q702.20-15.72 701.36-14.20Q700.52-12.68 700.52-10.68L700.52-10.68Q700.52-8.68 701.36-7.16Q702.20-5.64 703.64-4.82Q705.08-4 706.88-4L706.88-4Z M747.12-10.56Q747.12-10.04 747.04-9.08L747.04-9.08L730.28-9.08Q730.72-6.72 732.58-5.34Q734.44-3.96 737.20-3.96L737.20-3.96Q740.72-3.96 743-6.28L743-6.28L745.68-3.20Q744.24-1.48 742.04-0.60Q739.84 0.28 737.08 0.28L737.08 0.28Q733.56 0.28 730.88-1.12Q728.20-2.52 726.74-5.02Q725.28-7.52 725.28-10.68L725.28-10.68Q725.28-13.80 726.70-16.30Q728.12-18.80 730.64-20.20Q733.16-21.60 736.32-21.60L736.32-21.60Q739.44-21.60 741.90-20.22Q744.36-18.84 745.74-16.34Q747.12-13.84 747.12-10.56L747.12-10.56ZM736.32-17.60Q733.92-17.60 732.26-16.18Q730.60-14.76 730.24-12.40L730.24-12.40L742.36-12.40Q742.04-14.72 740.40-16.16Q738.76-17.60 736.32-17.60L736.32-17.60Z M760.68-18.24Q762.84-21.60 768.28-21.60L768.28-21.60L768.28-16.84Q767.64-16.96 767.12-16.96L767.12-16.96Q764.20-16.96 762.56-15.26Q760.92-13.56 760.92-10.36L760.92-10.36L760.92 0L755.92 0L755.92-21.36L760.68-21.36L760.68-18.24Z"/></g>
</svg>
</g><g opacity="1" transform="rotate(0 152.1731 217.318)">
<svg width="393.1611" height="38" x="152.1731" y="217.318" version="1.1" preserveAspectRatio="none" viewBox="3.32 -28 293 28.32">
  <g transform="matrix(1 0 0 1 0 0)" class="companyName"><path id="id-D6z1nYkh13" d="M23.88-14.56Q26.28-13.80 27.64-12.02Q29-10.24 29-7.64L29-7.64Q29-3.96 26.14-1.98Q23.28 0 17.80 0L17.80 0L3.32 0L3.32-28L17-28Q22.12-28 24.86-26.04Q27.60-24.08 27.60-20.72L27.60-20.72Q27.60-18.68 26.62-17.08Q25.64-15.48 23.88-14.56L23.88-14.56ZM16.20-23.12L9.76-23.12L9.76-16.52L16.20-16.52Q18.60-16.52 19.84-17.36Q21.08-18.20 21.08-19.84L21.08-19.84Q21.08-21.48 19.84-22.30Q18.60-23.12 16.20-23.12L16.20-23.12ZM17.32-4.88Q19.88-4.88 21.18-5.72Q22.48-6.56 22.48-8.32L22.48-8.32Q22.48-11.80 17.32-11.80L17.32-11.80L9.76-11.80L9.76-4.88L17.32-4.88Z M39.44-18.68Q40.56-20.24 42.46-21.04Q44.36-21.84 46.84-21.84L46.84-21.84L46.84-16.08Q45.80-16.16 45.44-16.16L45.44-16.16Q42.76-16.16 41.24-14.66Q39.72-13.16 39.72-10.16L39.72-10.16L39.72 0L33.48 0L33.48-21.52L39.44-21.52L39.44-18.68Z M66.16-21.52L72.40-21.52L72.40 0L66.48 0L66.48-2.56Q65.24-1.16 63.52-0.42Q61.80 0.32 59.80 0.32L59.80 0.32Q55.56 0.32 53.08-2.12Q50.60-4.56 50.60-9.36L50.60-9.36L50.60-21.52L56.84-21.52L56.84-10.28Q56.84-5.08 61.20-5.08L61.20-5.08Q63.44-5.08 64.80-6.54Q66.16-8 66.16-10.88L66.16-10.88L66.16-21.52Z M91.28-21.84Q95.28-21.84 97.74-19.44Q100.20-17.04 100.20-12.32L100.20-12.32L100.20 0L93.96 0L93.96-11.36Q93.96-13.92 92.84-15.18Q91.72-16.44 89.60-16.44L89.60-16.44Q87.24-16.44 85.84-14.98Q84.44-13.52 84.44-10.64L84.44-10.64L84.44 0L78.20 0L78.20-21.52L84.16-21.52L84.16-19Q85.40-20.36 87.24-21.10Q89.08-21.84 91.28-21.84L91.28-21.84Z M116.32 0.32Q112.92 0.32 110.22-1.10Q107.52-2.52 106-5.04Q104.48-7.56 104.48-10.76L104.48-10.76Q104.48-13.96 106-16.48Q107.52-19 110.22-20.42Q112.92-21.84 116.32-21.84L116.32-21.84Q119.72-21.84 122.40-20.42Q125.08-19 126.60-16.48Q128.12-13.96 128.12-10.76L128.12-10.76Q128.12-7.56 126.60-5.04Q125.08-2.52 122.40-1.10Q119.72 0.32 116.32 0.32L116.32 0.32ZM116.32-4.80Q118.72-4.80 120.26-6.42Q121.80-8.04 121.80-10.76L121.80-10.76Q121.80-13.48 120.26-15.10Q118.72-16.72 116.32-16.72L116.32-16.72Q113.92-16.72 112.36-15.10Q110.80-13.48 110.80-10.76L110.80-10.76Q110.80-8.04 112.36-6.42Q113.92-4.80 116.32-4.80L116.32-4.80Z M163.20 0L154.24-11L150.48-7.08L150.48 0L144.04 0L144.04-28L150.48-28L150.48-14.92L162.88-28L170.08-28L158.48-15.52L170.76 0L163.20 0Z M193.40-10.68Q193.40-10.56 193.28-9L193.28-9L177-9Q177.44-7 179.08-5.84Q180.72-4.68 183.16-4.68L183.16-4.68Q184.84-4.68 186.14-5.18Q187.44-5.68 188.56-6.76L188.56-6.76L191.88-3.16Q188.84 0.32 183 0.32L183 0.32Q179.36 0.32 176.56-1.10Q173.76-2.52 172.24-5.04Q170.72-7.56 170.72-10.76L170.72-10.76Q170.72-13.92 172.22-16.46Q173.72-19 176.34-20.42Q178.96-21.84 182.20-21.84L182.20-21.84Q185.36-21.84 187.92-20.48Q190.48-19.12 191.94-16.58Q193.40-14.04 193.40-10.68L193.40-10.68ZM182.24-17.12Q180.12-17.12 178.68-15.92Q177.24-14.72 176.92-12.64L176.92-12.64L187.52-12.64Q187.20-14.68 185.76-15.90Q184.32-17.12 182.24-17.12L182.24-17.12Z M203.52-18.68Q204.64-20.24 206.54-21.04Q208.44-21.84 210.92-21.84L210.92-21.84L210.92-16.08Q209.88-16.16 209.52-16.16L209.52-16.16Q206.84-16.16 205.32-14.66Q203.80-13.16 203.80-10.16L203.80-10.16L203.80 0L197.56 0L197.56-21.52L203.52-21.52L203.52-18.68Z M227.60-5.44L229.28-1.04Q228.36-0.36 227.02-0.02Q225.68 0.32 224.20 0.32L224.20 0.32Q220.36 0.32 218.26-1.64Q216.16-3.60 216.16-7.40L216.16-7.40L216.16-16.24L212.84-16.24L212.84-21.04L216.16-21.04L216.16-26.28L222.40-26.28L222.40-21.04L227.76-21.04L227.76-16.24L222.40-16.24L222.40-7.48Q222.40-6.12 223.10-5.38Q223.80-4.64 225.08-4.64L225.08-4.64Q226.56-4.64 227.60-5.44L227.60-5.44Z M253.20-10.68Q253.20-10.56 253.08-9L253.08-9L236.80-9Q237.24-7 238.88-5.84Q240.52-4.68 242.96-4.68L242.96-4.68Q244.64-4.68 245.94-5.18Q247.24-5.68 248.36-6.76L248.36-6.76L251.68-3.16Q248.64 0.32 242.80 0.32L242.80 0.32Q239.16 0.32 236.36-1.10Q233.56-2.52 232.04-5.04Q230.52-7.56 230.52-10.76L230.52-10.76Q230.52-13.92 232.02-16.46Q233.52-19 236.14-20.42Q238.76-21.84 242-21.84L242-21.84Q245.16-21.84 247.72-20.48Q250.28-19.12 251.74-16.58Q253.20-14.04 253.20-10.68L253.20-10.68ZM242.04-17.12Q239.92-17.12 238.48-15.92Q237.04-14.72 236.72-12.64L236.72-12.64L247.32-12.64Q247-14.68 245.56-15.90Q244.12-17.12 242.04-17.12L242.04-17.12Z M264.60 0.32Q261.92 0.32 259.36-0.34Q256.80-1 255.28-2L255.28-2L257.36-6.48Q258.80-5.56 260.84-4.98Q262.88-4.40 264.84-4.40L264.84-4.40Q268.80-4.40 268.80-6.36L268.80-6.36Q268.80-7.28 267.72-7.68Q266.64-8.08 264.40-8.36L264.40-8.36Q261.76-8.76 260.04-9.28Q258.32-9.80 257.06-11.12Q255.80-12.44 255.80-14.88L255.80-14.88Q255.80-16.92 256.98-18.50Q258.16-20.08 260.42-20.96Q262.68-21.84 265.76-21.84L265.76-21.84Q268.04-21.84 270.30-21.34Q272.56-20.84 274.04-19.96L274.04-19.96L271.96-15.52Q269.12-17.12 265.76-17.12L265.76-17.12Q263.76-17.12 262.76-16.56Q261.76-16 261.76-15.12L261.76-15.12Q261.76-14.12 262.84-13.72Q263.92-13.32 266.28-12.96L266.28-12.96Q268.92-12.52 270.60-12.02Q272.28-11.52 273.52-10.20Q274.76-8.88 274.76-6.52L274.76-6.52Q274.76-4.52 273.56-2.96Q272.36-1.40 270.06-0.54Q267.76 0.32 264.60 0.32L264.60 0.32Z M285-4.80L296.32-4.80L296.32 0L277.12 0L277.12-3.76L288.08-16.72L277.40-16.72L277.40-21.52L295.96-21.52L295.96-17.76L285-4.80Z"/></g>
</svg>
</g><g opacity="1" transform="rotate(0 132.1731 190.318)">
<svg width="4" height="121.48" x="132.1731" y="190.318" version="1.1" preserveAspectRatio="none" viewBox="0 0 4 121.48">
  <rect x="0" y="0" width="4" height="121.48" class="companyName shapeStroke-str" style="stroke-width:0;" rx="0px" ry="0px"/>
</svg>
</g></svg></svg>