<?xml version="1.0" encoding="UTF-8" standalone="no"?>
<svg
   version="1.1"
   width="692"
   height="692"
   x="0"
   y="0"
   viewBox="0 0 671.72656 671.72656"
   xml:space="preserve"
   class=""
   id="svg34"
   sodipodi:docname="english.svg"
   inkscape:version="1.1 (c68e22c387, 2021-05-23)"
   xmlns:inkscape="http://www.inkscape.org/namespaces/inkscape"
   xmlns:sodipodi="http://sodipodi.sourceforge.net/DTD/sodipodi-0.dtd"
   xmlns="http://www.w3.org/2000/svg"
   xmlns:svg="http://www.w3.org/2000/svg"><defs
     id="defs38" /><sodipodi:namedview
     id="namedview36"
     pagecolor="#ffffff"
     bordercolor="#666666"
     borderopacity="1.0"
     inkscape:pageshadow="2"
     inkscape:pageopacity="0.0"
     inkscape:pagecheckerboard="0"
     showgrid="false"
     fit-margin-top="90"
     fit-margin-left="90"
     fit-margin-right="90"
     fit-margin-bottom="90"
     inkscape:zoom="1.7050781"
     inkscape:cx="345.43872"
     inkscape:cy="345.43872"
     inkscape:window-width="2560"
     inkscape:window-height="1334"
     inkscape:window-x="-11"
     inkscape:window-y="-11"
     inkscape:window-maximized="1"
     inkscape:current-layer="svg34" /><g
     id="g32"
     transform="translate(87.363281,87.363281)"><g
       id="g30"><path
         d="m 249.162,438 h 217 v -32.325 c -87.662,0 -159.161,-94.508 -217,-20 z"
         fill="#f0f5fa"
         data-original="#f0f5fa"
         class=""
         id="path2" /><path
         d="m 249.205,438 h -217 v -32.325 c 87.662,0 159.161,-94.508 217,-20 z"
         fill="#e4ecf2"
         data-original="#e4ecf2"
         class=""
         id="path4" /><path
         d="M 387.8,0 H 109.2 C 97.979,0 88.883,9.096 88.883,20.317 v 192.046 c 0,11.221 9.096,20.317 20.317,20.317 h 91.266 c 7.259,0 13.966,3.872 17.595,10.158 l 30.439,52.722 30.439,-52.722 c 3.629,-6.286 10.336,-10.158 17.595,-10.158 H 387.8 c 11.221,0 20.317,-9.096 20.317,-20.317 V 20.317 C 408.117,9.096 399.021,0 387.8,0 Z"
         fill="#e1ecfb"
         data-original="#ffe8d9"
         class=""
         id="path6" /><g
         id="g10"><path
           d="m 387.8,0 h -40 c 11.221,0 20.317,9.096 20.317,20.317 v 192.046 c 0,11.221 -9.096,20.317 -20.317,20.317 h 40 c 11.221,0 20.317,-9.096 20.317,-20.317 V 20.317 C 408.117,9.096 399.021,0 387.8,0 Z"
           fill="#c7dbff"
           data-original="#ffddc7"
           class=""
           id="path8" /></g><g
         id="g14"><path
           d="M 482.5,438 H 14.5 C 6.492,438 0,444.492 0,452.5 0,460.508 6.492,467 14.5,467 h 218.88 c 2.434,-5.962 8.282,-10.167 15.12,-10.167 6.838,0 12.685,4.205 15.12,10.167 H 482.5 c 8.008,0 14.5,-6.492 14.5,-14.5 0,-8.008 -6.492,-14.5 -14.5,-14.5 z"
           fill="#677a8f"
           data-original="#677a8f"
           class=""
           id="path12" /></g><g
         id="g18"><path
           d="m 482.5,438 h -40 c 8.008,0 14.5,6.492 14.5,14.5 0,8.008 -6.492,14.5 -14.5,14.5 h 40 c 8.008,0 14.5,-6.492 14.5,-14.5 0,-8.008 -6.492,-14.5 -14.5,-14.5 z"
           fill="#5c6d80"
           data-original="#5c6d80"
           id="path16" /></g><path
         d="M 368.794,361.78 V 497 l 40.232,-22.5 v -95.882 z"
         fill="#fc435f"
         data-original="#fc435f"
         class=""
         id="path20" /><g
         fill="#677a8f"
         id="g28"><path
           d="m 182.045,76.23 c -0.026,-0.07 -0.054,-0.14 -0.082,-0.208 -1.448,-3.516 -4.838,-5.786 -8.64,-5.786 -0.004,0 -0.008,0 -0.012,0 -3.805,0.005 -7.195,2.284 -8.636,5.806 -0.023,0.057 -0.046,0.113 -0.067,0.17 l -30.539,80.185 c -1.475,3.871 0.469,8.204 4.34,9.678 3.866,1.475 8.203,-0.468 9.678,-4.339 l 5.766,-15.14 h 38.715 l 5.706,15.118 c 1.133,3.003 3.987,4.854 7.018,4.854 0.88,0 1.775,-0.156 2.647,-0.485 3.875,-1.462 5.831,-5.79 4.368,-9.665 z m -22.479,55.366 13.733,-36.058 13.608,36.058 z"
           fill="#677a8f"
           data-original="#677a8f"
           class=""
           id="path22" /><path
           d="M 355.922,151.566 H 315.505 L 360.943,81.83 c 1.502,-2.306 1.621,-5.249 0.31,-7.668 -1.311,-2.419 -3.842,-3.926 -6.594,-3.926 h -51.325 c -4.143,0 -7.5,3.358 -7.5,7.5 0,4.142 3.357,7.5 7.5,7.5 h 37.486 l -45.438,69.736 c -1.502,2.306 -1.621,5.249 -0.31,7.668 1.311,2.419 3.842,3.926 6.594,3.926 h 54.256 c 4.143,0 7.5,-3.358 7.5,-7.5 0,-4.142 -3.358,-7.5 -7.5,-7.5 z"
           fill="#677a8f"
           data-original="#677a8f"
           class=""
           id="path24" /><path
           d="m 273.093,110.901 h -39.229 c -4.143,0 -7.5,3.358 -7.5,7.5 0,4.142 3.357,7.5 7.5,7.5 h 39.229 c 4.143,0 7.5,-3.358 7.5,-7.5 0,-4.142 -3.358,-7.5 -7.5,-7.5 z"
           fill="#677a8f"
           data-original="#677a8f"
           class=""
           id="path26" /></g></g></g></svg>
