<?xml version="1.0" encoding="UTF-8" standalone="no"?>
<svg
   version="1.1"
   width="627.52277"
   height="692"
   x="0"
   y="0"
   viewBox="0 0 627.52277 692"
   xml:space="preserve"
   class=""
   id="svg46"
   sodipodi:docname="maths.svg"
   inkscape:version="1.1 (c68e22c387, 2021-05-23)"
   xmlns:inkscape="http://www.inkscape.org/namespaces/inkscape"
   xmlns:sodipodi="http://sodipodi.sourceforge.net/DTD/sodipodi-0.dtd"
   xmlns="http://www.w3.org/2000/svg"
   xmlns:svg="http://www.w3.org/2000/svg"><defs
     id="defs50" /><sodipodi:namedview
     id="namedview48"
     pagecolor="#ffffff"
     bordercolor="#666666"
     borderopacity="1.0"
     inkscape:pageshadow="2"
     inkscape:pageopacity="0.0"
     inkscape:pagecheckerboard="0"
     showgrid="false"
     fit-margin-top="90"
     fit-margin-left="90"
     fit-margin-right="90"
     fit-margin-bottom="90"
     inkscape:zoom="1.7050781"
     inkscape:cx="313.18213"
     inkscape:cy="298.52005"
     inkscape:window-width="2560"
     inkscape:window-height="1334"
     inkscape:window-x="-11"
     inkscape:window-y="-11"
     inkscape:window-maximized="1"
     inkscape:current-layer="svg46" /><g
     id="g44"
     transform="translate(57.76175,90)"><path
       d="M 442.703,512 H 113.045 c -5.523,0 -10,-4.477 -10,-10 V 39.138 c 0,-5.523 4.477,-10 10,-10 h 329.659 c 5.523,0 10,4.477 10,10 V 502 c -0.001,5.523 -4.478,10 -10.001,10 z"
       fill="#b6c1cc"
       data-original="#b6c1cc"
       class=""
       id="path2" /><path
       d="M 409.402,482.862 H 79.744 c -5.523,0 -10,-4.477 -10,-10 V 10 c 0,-5.523 4.477,-10 10,-10 h 329.659 c 5.523,0 10,4.477 10,10 v 462.862 c -0.001,5.523 -4.478,10 -10.001,10 z"
       fill="#e2eef9"
       data-original="#e5ecf1"
       class=""
       id="path4" /><path
       d="M 458.948,430.829 H 74.552 c -3.121,0 -6.157,-1.012 -8.653,-2.884 l -31.188,-23.39 c -3.297,-2.472 -3.297,-7.417 0,-9.89 l 31.188,-23.39 c 2.496,-1.872 5.533,-2.884 8.653,-2.884 h 384.396 c 11.495,0 20.813,9.318 20.813,20.813 v 20.813 c 0,11.494 -9.318,20.812 -20.813,20.812 z"
       fill="#fcdd2e"
       data-original="#fcdd2e"
       class=""
       id="path6" /><path
       d="M 458.948,407.935 H 39.218 l 26.681,20.01 c 2.496,1.872 5.533,2.884 8.653,2.884 h 384.396 c 11.495,0 20.813,-9.318 20.813,-20.813 v -20.813 c 0,-0.351 -0.035,-0.694 -0.052,-1.041 -0.546,11.009 -9.617,19.773 -20.761,19.773 z"
       fill="#f9c301"
       data-original="#f9c301"
       class=""
       id="path8" /><path
       d="m 419.402,430.829 h 39.546 c 11.495,0 20.813,-9.318 20.813,-20.813 v -20.813 c 0,-11.495 -9.318,-20.813 -20.813,-20.813 h -39.546 z"
       fill="#fc8086"
       data-original="#fc8086"
       id="path10" /><path
       d="m 458.948,407.935 h -39.546 v 22.894 h 39.546 c 11.495,0 20.813,-9.318 20.813,-20.813 v -20.813 c 0,-0.351 -0.035,-0.693 -0.053,-1.04 -0.545,11.008 -9.617,19.772 -20.76,19.772 z"
       fill="#fa4954"
       data-original="#fa4954"
       id="path12" /><g
       fill="#8f818f"
       id="g42"><path
         d="m 113.451,74.328 h 9.548 l 31.262,70.339 c 1.24,2.792 4.008,4.589 7.06,4.589 h 0.056 c 3.073,-0.023 5.842,-1.865 7.049,-4.692 l 40.662,-95.211 h 156.199 c 4.268,0 7.726,-3.459 7.726,-7.726 0,-4.267 -3.459,-7.726 -7.726,-7.726 h -161.3 c -3.095,0 -5.89,1.846 -7.106,4.692 l -35.701,83.596 -26.1,-58.723 c -1.24,-2.79 -4.007,-4.589 -7.06,-4.589 h -14.569 c -4.268,0 -7.726,3.459 -7.726,7.726 0,4.267 3.458,7.725 7.726,7.725 z"
         fill="#7c6f7c"
         data-original="#8f818f"
         class=""
         id="path14" /><path
         d="m 280.224,72.76 c -3.495,-2.448 -8.314,-1.597 -10.761,1.899 L 253.939,96.836 238.415,74.659 c -2.446,-3.495 -7.265,-4.347 -10.761,-1.899 -3.496,2.447 -4.346,7.265 -1.899,10.761 l 18.753,26.789 -18.753,26.789 c -2.447,3.495 -1.597,8.313 1.899,10.76 1.348,0.944 2.893,1.397 4.424,1.397 2.437,0 4.834,-1.149 6.337,-3.296 l 15.524,-22.177 15.524,22.177 c 1.503,2.147 3.9,3.296 6.337,3.296 1.529,0 3.075,-0.453 4.424,-1.397 3.496,-2.447 4.346,-7.265 1.899,-10.76 L 263.37,110.31 282.123,83.521 c 2.447,-3.496 1.597,-8.314 -1.899,-10.761 z"
         fill="#7c6f7c"
         data-original="#8f818f"
         class=""
         id="path16" /><path
         d="m 113.451,186.718 h 62.44 c 4.268,0 7.726,-3.459 7.726,-7.726 0,-4.267 -3.459,-7.726 -7.726,-7.726 h -62.44 c -4.268,0 -7.726,3.459 -7.726,7.726 0,4.267 3.458,7.726 7.726,7.726 z"
         fill="#7c6f7c"
         data-original="#8f818f"
         class=""
         id="path18" /><path
         d="m 113.451,222.1 h 62.44 c 4.268,0 7.726,-3.459 7.726,-7.726 0,-4.267 -3.459,-7.726 -7.726,-7.726 h -62.44 c -4.268,0 -7.726,3.459 -7.726,7.726 0,4.267 3.458,7.726 7.726,7.726 z"
         fill="#7c6f7c"
         data-original="#8f818f"
         class=""
         id="path20" /><path
         d="m 365.288,171.266 h -62.439 c -4.268,0 -7.726,3.459 -7.726,7.726 0,4.267 3.459,7.726 7.726,7.726 h 62.439 c 4.268,0 7.726,-3.459 7.726,-7.726 0,-4.267 -3.458,-7.726 -7.726,-7.726 z"
         fill="#7c6f7c"
         data-original="#8f818f"
         class=""
         id="path22" /><path
         d="m 365.288,206.647 h -62.439 c -4.268,0 -7.726,3.459 -7.726,7.726 0,4.267 3.459,7.726 7.726,7.726 h 62.439 c 4.268,0 7.726,-3.459 7.726,-7.726 0,-4.266 -3.458,-7.726 -7.726,-7.726 z"
         fill="#7c6f7c"
         data-original="#8f818f"
         class=""
         id="path24" /><path
         d="m 187.605,268.997 c -3.495,-2.448 -8.314,-1.597 -10.761,1.899 l -9.28,13.257 -9.28,-13.257 c -2.447,-3.495 -7.265,-4.348 -10.761,-1.899 -3.496,2.447 -4.346,7.265 -1.899,10.76 l 12.508,17.869 -12.508,17.869 c -2.447,3.495 -1.597,8.313 1.899,10.76 1.348,0.944 2.893,1.397 4.424,1.397 2.437,0 4.834,-1.149 6.337,-3.296 l 9.28,-13.257 9.28,13.257 c 1.503,2.147 3.9,3.296 6.337,3.296 1.529,0 3.075,-0.453 4.424,-1.397 3.496,-2.447 4.346,-7.265 1.899,-10.76 l -12.508,-17.869 12.508,-17.869 c 2.447,-3.495 1.597,-8.313 -1.899,-10.76 z"
         fill="#7c6f7c"
         data-original="#8f818f"
         class=""
         id="path26" /><path
         d="m 287.507,268.997 c -3.495,-2.448 -8.313,-1.597 -10.761,1.899 l -9.28,13.257 -9.28,-13.257 c -2.447,-3.495 -7.265,-4.348 -10.761,-1.899 -3.496,2.447 -4.346,7.265 -1.899,10.76 l 12.508,17.869 -12.508,17.869 c -2.447,3.495 -1.597,8.313 1.899,10.76 1.348,0.944 2.893,1.397 4.424,1.397 2.437,0 4.834,-1.149 6.337,-3.296 l 31.219,-44.599 c 2.448,-3.495 1.598,-8.313 -1.898,-10.76 z"
         fill="#7c6f7c"
         data-original="#8f818f"
         class=""
         id="path28" /><path
         d="m 233.126,289.9 h -7.883 v -7.884 c 0,-4.267 -3.459,-7.726 -7.726,-7.726 -4.267,0 -7.726,3.459 -7.726,7.726 v 7.884 h -7.883 c -4.268,0 -7.726,3.459 -7.726,7.726 0,4.267 3.459,7.726 7.726,7.726 h 7.883 v 7.883 c 0,4.267 3.459,7.726 7.726,7.726 4.267,0 7.726,-3.459 7.726,-7.726 v -7.883 h 7.883 c 4.268,0 7.726,-3.459 7.726,-7.726 0,-4.267 -3.458,-7.726 -7.726,-7.726 z"
         fill="#7c6f7c"
         data-original="#8f818f"
         class=""
         id="path30" /><path
         d="m 365.288,275.33 h -20.813 c -4.268,0 -7.726,3.459 -7.726,7.726 0,4.267 3.459,7.726 7.726,7.726 h 20.813 c 4.268,0 7.726,-3.459 7.726,-7.726 0,-4.266 -3.458,-7.726 -7.726,-7.726 z"
         fill="#7c6f7c"
         data-original="#8f818f"
         class=""
         id="path32" /><path
         d="m 365.288,304.469 h -20.813 c -4.268,0 -7.726,3.459 -7.726,7.726 0,4.267 3.459,7.726 7.726,7.726 h 20.813 c 4.268,0 7.726,-3.459 7.726,-7.726 0,-4.267 -3.458,-7.726 -7.726,-7.726 z"
         fill="#7c6f7c"
         data-original="#8f818f"
         class=""
         id="path34" /><path
         d="m 133.546,256.842 c -3.018,-3.017 -7.909,-3.017 -10.928,0 -10.893,10.894 -16.893,25.378 -16.893,40.784 0,15.406 6,29.89 16.893,40.784 1.509,1.509 3.487,2.263 5.464,2.263 1.977,0 3.955,-0.755 5.464,-2.263 3.017,-3.017 3.017,-7.909 0,-10.927 -7.976,-7.975 -12.368,-18.579 -12.368,-29.857 0,-11.279 4.392,-21.882 12.368,-29.858 3.017,-3.017 3.017,-7.909 0,-10.926 z"
         fill="#7c6f7c"
         data-original="#8f818f"
         class=""
         id="path36" /><path
         d="m 298.365,256.842 c -3.017,3.017 -3.017,7.909 0,10.927 7.976,7.975 12.368,18.579 12.368,29.858 0,11.278 -4.392,21.882 -12.368,29.857 -3.017,3.017 -3.017,7.909 0,10.927 1.509,1.509 3.487,2.263 5.464,2.263 1.977,0 3.955,-0.755 5.464,-2.263 10.893,-10.894 16.893,-25.378 16.893,-40.784 0,-15.406 -6,-29.89 -16.893,-40.784 -3.018,-3.018 -7.909,-3.018 -10.928,-0.001 z"
         fill="#7c6f7c"
         data-original="#8f818f"
         class=""
         id="path38" /><path
         d="m 38.42,407.336 h 19.555 c 4.23,0 7.92,-3.26 8.047,-7.488 0.131,-4.376 -3.376,-7.964 -7.723,-7.964 H 38.42 l -3.709,2.782 c -3.297,2.472 -3.297,7.417 0,9.89 z"
         fill="#7c6f7c"
         data-original="#8f818f"
         class=""
         id="path40" /></g></g></svg>
